<svg width="55" height="31" viewBox="0 0 55 31" fill="none" xmlns="http://www.w3.org/2000/svg">
<g clip-path="url(#clip0_42_5801)">
<path d="M54.9957 11.5163C55.0015 11.4746 55.0015 11.4325 54.9957 11.3908C55.0011 11.3568 55.0011 11.3222 54.9957 11.2881L54.5883 8.35545C54.5295 8.0046 54.3723 7.67667 54.1344 7.40834L54.0645 7.32846L53.9365 7.20293L46.8829 1.24635L47.0808 1.44036C46.9189 1.25047 46.7157 1.09859 46.4861 0.995902C46.2565 0.89321 46.0062 0.842317 45.7539 0.846978H43.6122C43.2639 0.840213 42.9236 0.948765 42.6461 1.15508C42.3547 0.950008 42.0038 0.842011 41.6451 0.846978H39.5034C39.2225 0.84251 38.9454 0.910853 38.7001 1.04511C38.4549 1.17936 38.2501 1.37476 38.1067 1.61151C37.8855 1.94967 37.8023 2.35709 37.8738 2.75262L38.1416 4.60121C37.9642 4.50264 37.7635 4.4515 37.5596 4.45288H27.1887C26.8166 4.45517 26.4531 4.56209 26.1411 4.76097C25.8395 4.94608 25.5973 5.21115 25.4428 5.5255L24.6396 4.85226C24.3235 4.56552 23.9063 4.41011 23.4757 4.41864H7.20353C6.83012 4.42531 6.46501 4.52758 6.14436 4.71533C5.70569 4.96704 5.38421 5.37633 5.24809 5.85643L0.0801167 22.8019C-0.0164452 23.0811 -0.0259442 23.3822 0.0528362 23.6668C0.131617 23.9513 0.295109 24.2064 0.522426 24.3995C0.581658 24.4487 0.643851 24.4944 0.708664 24.5363C0.708664 24.5363 0.603891 24.4679 0.545692 24.4109L7.59931 30.3788C7.89769 30.6482 8.28781 30.7987 8.69336 30.801H25.0936C25.4681 30.7915 25.8335 30.6852 26.1528 30.4929C26.3334 30.3962 26.495 30.2687 26.63 30.1163L26.6882 30.0365L26.7813 29.9224L26.8512 29.7968L27.6194 30.4473C27.9135 30.7059 28.2951 30.8482 28.6902 30.8467H45.1253C45.4994 30.8345 45.8641 30.7284 46.1845 30.5386C46.361 30.4359 46.5217 30.3091 46.6618 30.162L46.7199 30.0821L46.813 29.9681C46.8625 29.8958 46.9055 29.8195 46.941 29.7398C46.9791 29.6706 47.0103 29.598 47.0342 29.523L51.7482 14.0496V13.9127C51.754 13.8596 51.754 13.806 51.7482 13.7529V13.6502C51.7539 13.6162 51.7539 13.5815 51.7482 13.5475C51.7535 13.4753 51.7535 13.4029 51.7482 13.3307H53.2614C53.393 13.3425 53.5255 13.3425 53.6571 13.3307H53.7619C53.8471 13.3058 53.9291 13.2713 54.0063 13.228H54.1227L54.3322 13.0682L54.4253 12.9998L54.5883 12.7943V12.7259L54.7047 12.5319C54.6982 12.4942 54.6982 12.4556 54.7047 12.4178C54.6985 12.3993 54.6985 12.3793 54.7047 12.3608C54.7294 12.2939 54.7489 12.2252 54.7629 12.1553C54.7575 12.1328 54.7575 12.1094 54.7629 12.0869C54.7572 12.0529 54.7572 12.0182 54.7629 11.9842C54.7629 11.9842 54.9957 11.5391 54.9957 11.5163Z" fill="#373435"/>
<path d="M23.9529 5.71959C24.0147 5.77437 24.0578 5.8464 24.0765 5.92597C24.0953 6.00555 24.0887 6.08883 24.0577 6.16461L18.9013 23.0986C18.8364 23.2835 18.7036 23.4381 18.5289 23.5323C18.3867 23.6255 18.2222 23.6806 18.0516 23.692H1.6631C1.52314 23.6854 1.39055 23.6286 1.29063 23.5323C1.23119 23.4784 1.18948 23.4083 1.17081 23.3311C1.15215 23.2539 1.15741 23.173 1.18588 23.0986L6.35385 6.16461C6.4134 5.9774 6.54206 5.8187 6.71468 5.71959C6.85918 5.63305 7.02294 5.58215 7.1919 5.57124H23.5804C23.7193 5.57255 23.8524 5.62559 23.9529 5.71959ZM15.3978 19.6867L18.4823 9.57652H9.84575L6.77286 19.6867H15.3978ZM39.5965 5.89074C39.6524 5.95445 39.7223 6.00497 39.8009 6.03855C39.8795 6.07214 39.9647 6.08793 40.0505 6.08473H42.1805C42.2616 6.08551 42.3415 6.06601 42.4129 6.02808C42.4841 5.99014 42.5443 5.93502 42.5879 5.86792C42.6257 5.81551 42.6524 5.75618 42.6664 5.69345C42.6804 5.63073 42.6814 5.56589 42.6693 5.50278L42.2503 2.49025C42.2104 2.35083 42.1388 2.22208 42.0408 2.11368C41.9848 2.04998 41.915 1.99946 41.8364 1.96587C41.7578 1.93229 41.6725 1.91651 41.5869 1.9197H39.4568C39.3757 1.91892 39.2957 1.93842 39.2245 1.97636C39.1532 2.01429 39.0929 2.06941 39.0495 2.13651C38.9679 2.29626 38.933 2.39896 38.9679 2.49025L39.3986 5.50278C39.4207 5.64946 39.4901 5.78538 39.5965 5.89074ZM46.3591 2.46743C46.3192 2.328 46.2475 2.19925 46.1496 2.09086C46.096 2.02739 46.0282 1.97688 45.9515 1.94324C45.8748 1.9096 45.7912 1.89373 45.7073 1.89687H43.5656C43.4858 1.89465 43.4069 1.91362 43.3372 1.95179C43.2676 1.98996 43.2097 2.04591 43.1699 2.11368C43.0924 2.21492 43.0589 2.34208 43.0768 2.46743L43.5074 5.47995C43.5344 5.62509 43.603 5.75967 43.7053 5.86792C43.7622 5.93038 43.8322 5.98005 43.9106 6.01353C43.989 6.04701 44.0737 6.06351 44.1592 6.0619H46.3009C46.3805 6.06294 46.4589 6.04346 46.5283 6.0054C46.5978 5.96735 46.6559 5.91208 46.6967 5.84511C46.7372 5.79405 46.7654 5.73474 46.7795 5.67156C46.7937 5.60838 46.7931 5.54292 46.7781 5.47995L46.3591 2.46743ZM37.7225 7.03186L37.513 5.54841H27.1887C27.0266 5.55717 26.8698 5.60841 26.7347 5.69676C26.649 5.74259 26.5744 5.80611 26.5161 5.88294C26.4579 5.95978 26.4173 6.04809 26.3972 6.14179L25.5359 8.97171C25.5015 9.04244 25.4897 9.12179 25.5022 9.19919C25.5147 9.27659 25.5508 9.34844 25.6057 9.40536C25.7039 9.49581 25.832 9.54854 25.9666 9.55371H38.514L35.4295 19.6639H22.917C22.7556 19.6675 22.5985 19.7149 22.4631 19.8008C22.2984 19.9033 22.1782 20.0618 22.1255 20.2459L21.2525 23.0758C21.224 23.1484 21.2165 23.2273 21.2309 23.3038C21.2453 23.3804 21.2809 23.4515 21.334 23.5094C21.4291 23.6059 21.5582 23.6631 21.6948 23.6692H38.1299C38.2999 23.6548 38.4637 23.6 38.6071 23.5094C38.779 23.4148 38.9079 23.2599 38.9679 23.0758L43.6936 7.60241H38.3743C38.2899 7.60404 38.2061 7.58868 38.1281 7.55727C38.05 7.52587 37.9793 7.47908 37.9204 7.41982C37.8242 7.31634 37.7561 7.19076 37.7225 7.05468V7.03186Z" fill="white"/>
</g>
<defs>
<clipPath id="clip0_42_5801">
<rect width="55" height="30" fill="white" transform="translate(0 0.84668)"/>
</clipPath>
</defs>
</svg>
