<svg width="41" height="28" viewBox="0 0 41 28" fill="none" xmlns="http://www.w3.org/2000/svg">
<g clip-path="url(#clip0_42_5793)">
<path d="M38.4375 1.69043C38.4375 2.15642 38.8199 2.53418 39.2917 2.53418H40.1458C40.6176 2.53418 41 2.15642 41 1.69043C41 1.22444 40.6176 0.84668 40.1458 0.84668H39.2917C38.8199 0.84668 38.4375 1.22444 38.4375 1.69043Z" fill="#212326"/>
<path d="M13.6667 27.8467H17.8161L16.6081 26.6534C16.2877 26.337 15.8532 26.1592 15.4001 26.1592H13.6667C7.06225 26.1592 1.70833 20.8706 1.70833 14.3467C1.70833 7.8228 7.06225 2.53419 13.6667 2.53418H27.3333C33.9378 2.53418 39.2917 7.8228 39.2917 14.3467C39.2917 20.8706 33.9378 26.1592 27.3333 26.1592H22.2209C21.5413 26.1592 20.8895 25.8925 20.4089 25.4178L18.9937 24.0198C18.1928 23.2287 17.1064 22.7842 15.9737 22.7842H13.6667C8.94921 22.7842 5.125 19.0066 5.125 14.3467C5.125 9.68675 8.94921 5.90918 13.6667 5.90918H27.3333C32.0508 5.90918 35.875 9.68675 35.875 14.3467C35.875 19.0066 32.0508 22.7842 27.3333 22.7842H24.0507C23.371 22.7842 22.7193 22.5175 22.2387 22.0428L20.8234 20.6448C20.0225 19.8537 18.9362 19.4092 17.8035 19.4092H13.6667C10.8362 19.4092 8.54167 17.1426 8.54167 14.3467C8.54167 11.5508 10.8362 9.28418 13.6667 9.28418H27.3333C30.1638 9.28418 32.4583 11.5508 32.4583 14.3467C32.4583 17.1085 30.2194 19.3538 27.4367 19.4082L27.4361 19.4092H26.1861C25.5064 19.4092 24.8547 19.1425 24.3741 18.6678L22.9588 17.2698C22.3017 16.6206 21.4524 16.2049 20.5429 16.0766L20.5 16.0342H13.6667C12.7232 16.0342 11.9583 15.2787 11.9583 14.3467C11.9583 13.4147 12.7232 12.6592 13.6667 12.6592H27.3333C28.2768 12.6592 29.0417 13.4147 29.0417 14.3467C29.0417 15.2787 28.2768 16.0342 27.3333 16.0342H23.9167L25.1247 17.2274C25.445 17.5439 25.8795 17.7217 26.3326 17.7217H27.3333C29.2203 17.7217 30.75 16.2106 30.75 14.3467C30.75 12.4827 29.2203 10.9717 27.3333 10.9717H13.6667C11.7797 10.9717 10.25 12.4827 10.25 14.3467C10.25 16.2106 11.7797 17.7217 13.6667 17.7217H19.9389C20.6186 17.7217 21.2703 17.9884 21.7509 18.463L23.1662 19.861C23.9671 20.6522 25.0534 21.0967 26.1861 21.0967H27.7604V21.0837C31.3354 20.866 34.1667 17.9329 34.1667 14.3467C34.1667 10.6188 31.1072 7.59668 27.3333 7.59668H13.6667C9.89275 7.59668 6.83333 10.6188 6.83333 14.3467C6.83333 18.0746 9.89275 21.0967 13.6667 21.0967H17.8035C18.4831 21.0967 19.1349 21.3634 19.6155 21.838L21.0307 23.236C21.8317 24.0272 22.918 24.4717 24.0507 24.4717H27.3333C32.9943 24.4717 37.5833 19.9386 37.5833 14.3467C37.5833 8.75478 32.9943 4.22168 27.3333 4.22168H13.6667C8.00573 4.22168 3.41667 8.75478 3.41667 14.3467C3.41667 19.9386 8.00573 24.4717 13.6667 24.4717H15.9737C16.6534 24.4717 17.3051 24.7384 17.7857 25.213L19.201 26.611C20.0019 27.4022 21.0882 27.8467 22.2209 27.8467H27.3333C34.8812 27.8467 41 21.8025 41 14.3467C41 6.89083 34.8812 0.846679 27.3333 0.84668L13.6667 0.846682C6.11877 0.846683 -6.59857e-07 6.89084 0 14.3467C6.59857e-07 21.8025 6.11878 27.8467 13.6667 27.8467Z" fill="#212326"/>
</g>
<defs>
<clipPath id="clip0_42_5793">
<rect width="41" height="27" fill="white" transform="translate(0 0.84668)"/>
</clipPath>
</defs>
</svg>
