<svg width="52" height="21" viewBox="0 0 52 21" fill="none" xmlns="http://www.w3.org/2000/svg">
<g clip-path="url(#clip0_42_5797)">
<path d="M12.3431 0.84668C10.3124 0.84668 8.36487 1.65338 6.92893 3.08932L2.24264 7.77561C0.8067 9.21155 0 11.1591 0 13.1898C0 17.4186 3.42809 20.8467 7.65687 20.8467C9.6876 20.8467 11.6351 20.0399 13.0711 18.604L16.3126 15.3625C16.3126 15.3624 16.3127 15.3625 16.3126 15.3625L25.7573 5.91775C26.4431 5.23195 27.3733 4.84668 28.3431 4.84668C29.9669 4.84668 31.3435 5.90495 31.8207 7.36939L34.8015 4.38865C33.4417 2.25891 31.0573 0.84668 28.3431 0.84668C26.3124 0.84668 24.3649 1.65338 22.9289 3.08932L10.2427 15.7756C9.55687 16.4614 8.62673 16.8467 7.65687 16.8467C5.63723 16.8467 4 15.2095 4 13.1898C4 12.2199 4.38527 11.2898 5.07107 10.604L9.75733 5.91775C10.4431 5.23195 11.3733 4.84668 12.3431 4.84668C13.9669 4.84668 15.3435 5.905 15.8207 7.36949L18.8015 4.38873C17.4417 2.25895 15.0574 0.84668 12.3431 0.84668Z" fill="#394149"/>
<path d="M26.2427 15.7756C25.5569 16.4614 24.6268 16.8467 23.6569 16.8467C22.0334 16.8467 20.6569 15.7887 20.1795 14.3245L17.1989 17.3051C18.5587 19.4346 20.9429 20.8467 23.6569 20.8467C25.6877 20.8467 27.6352 20.0399 29.0711 18.604L41.7574 5.91775C42.4432 5.23195 43.3733 4.84668 44.3432 4.84668C46.3629 4.84668 48 6.48391 48 8.50355C48 9.47341 47.6148 10.4035 46.929 11.0893L42.2427 15.7756C41.5569 16.4614 40.6268 16.8467 39.6569 16.8467C38.0332 16.8467 36.6567 15.7885 36.1794 14.3241L33.1987 17.3049C34.5585 19.4345 36.9428 20.8467 39.6569 20.8467C41.6876 20.8467 43.6352 20.0399 45.0711 18.604L49.7574 13.9177C51.1933 12.4818 52 10.5343 52 8.50355C52 4.27477 48.572 0.84668 44.3432 0.84668C42.3125 0.84668 40.3649 1.65338 38.929 3.08932L26.2427 15.7756Z" fill="#394149"/>
</g>
<defs>
<clipPath id="clip0_42_5797">
<rect width="52" height="20" fill="white" transform="translate(0 0.84668)"/>
</clipPath>
</defs>
</svg>
