<svg width="47" height="30" viewBox="0 0 47 30" fill="none" xmlns="http://www.w3.org/2000/svg">
<g clip-path="url(#clip0_42_5777)">
<path d="M43.9965 4.41151C43.9965 4.44532 43.9965 4.48759 43.9877 4.51295C43.9437 4.84263 43.9437 5.17232 43.9701 5.51046C43.9877 5.59499 44.0053 5.67953 44.0758 5.74716C44.1903 5.87395 44.3664 5.8486 44.4369 5.69643C44.4722 5.62035 44.4722 5.54427 44.4545 5.46819C44.3664 5.14696 44.3488 4.80882 44.34 4.47913C44.34 4.46223 44.34 4.43686 44.34 4.41151C44.4369 4.40305 44.525 4.3946 44.6042 4.3946C44.6659 4.38615 44.7188 4.37769 44.7628 4.35233C44.8949 4.28471 44.8949 4.141 44.754 4.07337C44.7011 4.04801 44.6307 4.03955 44.569 4.03955C44.3488 4.04801 44.1287 4.04801 43.9084 4.04801C43.8292 4.04801 43.7499 4.05646 43.6706 4.06491C43.6266 4.07337 43.5737 4.07337 43.5385 4.09873C43.4768 4.12409 43.4417 4.16635 43.4417 4.22553C43.4504 4.28471 43.4768 4.31852 43.5385 4.34388C43.5737 4.36924 43.6178 4.37769 43.6618 4.37769C43.7675 4.38615 43.882 4.40305 43.9965 4.41151ZM46.4186 4.80037C46.4186 4.80882 46.4274 4.81727 46.4274 4.81727C46.4627 5.04551 46.4979 5.26531 46.5243 5.4851C46.5332 5.56117 46.542 5.6288 46.5948 5.68798C46.7093 5.83168 46.8855 5.81478 46.9647 5.66262C47 5.58654 47.0087 5.51046 46.9912 5.42592C46.9383 5.17232 46.9119 4.91871 46.859 4.67356C46.8238 4.5214 46.7798 4.37769 46.7357 4.24244C46.7093 4.1579 46.6477 4.09872 46.542 4.09027C46.4363 4.07337 46.357 4.12409 46.3129 4.20017C46.2601 4.26779 46.2161 4.33542 46.1808 4.41151C46.1192 4.54676 46.0663 4.68202 45.9959 4.80882C45.987 4.84263 45.9782 4.86799 45.9606 4.89335C45.9519 4.87644 45.9431 4.86799 45.9431 4.86799C45.8285 4.65666 45.7228 4.44532 45.6083 4.24244C45.5907 4.22553 45.5819 4.20862 45.5731 4.19171C45.5203 4.11564 45.4586 4.07337 45.3617 4.07337C45.2736 4.08182 45.2031 4.13254 45.1592 4.20862C45.1415 4.24244 45.1415 4.26779 45.1327 4.30161C45.0975 4.57212 45.0534 4.84263 45.0182 5.11314C45.0006 5.26531 44.9918 5.41747 44.9918 5.56963C44.983 5.60344 44.9918 5.64571 45.0094 5.67953C45.027 5.74715 45.0799 5.78942 45.1503 5.79787C45.2384 5.80633 45.3 5.78097 45.3265 5.71334C45.3529 5.66262 45.3617 5.62035 45.3705 5.57809C45.4058 5.42592 45.4322 5.28221 45.4586 5.13851C45.4762 5.05397 45.485 4.98634 45.5115 4.89335C45.5291 4.92717 45.5466 4.95253 45.5643 4.97789C45.6435 5.07933 45.7228 5.18077 45.8197 5.26531C45.9166 5.33293 45.9959 5.32448 46.0751 5.2484C46.0928 5.23149 46.1016 5.22304 46.1192 5.20613C46.1985 5.08778 46.2954 4.96944 46.3746 4.85108C46.3922 4.83418 46.401 4.81727 46.4186 4.80037Z" fill="#3A3B7B"/>
<path d="M26.1244 4.57736C26.0632 4.73801 26.0515 4.85376 26.0798 4.94996C26.111 5.08077 26.192 5.1236 26.302 5.09033C27.3366 4.8448 29.6051 5.54172 30.445 5.73596C30.6431 5.77675 30.8042 5.53133 30.6691 5.3113C30.4718 5.09822 28.2043 4.18592 27.3391 4.13618C26.9999 4.11779 26.3936 4.03432 26.1244 4.57736Z" fill="#3A3B7B"/>
<path d="M34.9904 1.62411C35.1006 1.68519 35.1622 1.74345 35.1927 1.80855C35.238 1.89394 35.2141 1.95302 35.1379 1.98317C34.4541 2.3035 33.5441 3.68259 33.1768 4.15822C33.0877 4.26764 32.8823 4.20406 32.8513 4.02412C32.8577 3.82068 33.6643 2.32406 34.1145 1.91643C34.2915 1.75728 34.5837 1.44501 34.9904 1.62411Z" fill="#3A3B7B"/>
<path d="M29.5445 0.945409C29.6769 0.849592 29.8146 0.816015 29.8849 0.878284C30.9167 1.72518 31.4638 3.06632 31.8026 4.2941C31.8154 4.32271 31.8162 4.36375 31.806 4.40657C31.8017 4.44317 31.7739 4.48184 31.7296 4.51175C31.6824 4.54478 31.6417 4.55484 31.6225 4.52638C31.1703 3.93605 28.5875 1.63918 29.5445 0.945409Z" fill="#3A3B7B"/>
<path d="M7.69524 15.6285C7.94253 15.4518 8.21137 15.3047 8.49586 15.1905C8.7935 15.1089 9.11075 15.1224 9.39966 15.2291C9.68851 15.3359 9.93338 15.53 10.0971 15.7822C10.2435 16.0337 10.3008 16.3241 10.2604 16.6096C10.2199 16.8951 10.084 17.1602 9.87289 17.3651C9.70926 17.5312 9.52348 17.6759 9.3205 17.7954C8.41582 18.3564 7.50308 18.8866 6.59039 19.4475C6.40363 19.5879 6.20551 19.7139 5.99793 19.8241C5.68217 19.9752 5.32132 20.0157 4.97776 19.9385C4.6342 19.8614 4.32955 19.6713 4.11648 19.4014C3.95719 19.2103 3.82277 19.0013 3.71616 18.779C2.8515 17.0347 1.95481 15.2981 1.12217 13.523C0.737866 12.7546 0.425627 11.8709 0.121393 11.018C-0.010233 10.7702 -0.0359366 10.4829 0.0497553 10.2171C0.135447 9.9514 0.325774 9.72823 0.580249 9.5951C0.834727 9.46196 1.13327 9.4294 1.4124 9.50427C1.69152 9.57915 1.92921 9.75559 2.0749 9.99602C2.52271 10.5672 2.91911 11.1739 3.25981 11.8095C4.12448 13.3463 4.94912 14.8831 5.78176 16.3738C5.83024 16.4562 5.8837 16.5357 5.94188 16.612C6.56859 16.3591 7.15803 16.0285 7.69524 15.6285Z" fill="#3A3B7B"/>
<path d="M16.6354 15.0924C14.6579 17.313 11.3433 16.7521 9.67801 13.8936C8.49308 11.865 8.28493 8.51469 10.8629 6.40156C11.4135 5.95916 12.0717 5.65779 12.7764 5.52556C13.6404 5.40668 14.5214 5.55297 15.2936 5.94354C16.0657 6.3341 16.6895 6.94893 17.0757 7.70019C18.4848 10.1591 18.2847 13.2942 16.6354 15.0924ZM15.8347 9.91322C15.6247 9.30896 15.2032 8.79309 14.6418 8.4532C14.3242 8.2359 13.9382 8.13024 13.5489 8.15404C13.1595 8.17783 12.7906 8.32962 12.5042 8.58383C11.3593 9.55975 11.1191 11.8727 11.9517 13.2481C12.0579 13.4724 12.2137 13.6717 12.4085 13.8322C12.6033 13.9926 12.8323 14.1102 13.0793 14.1768C13.3264 14.2434 13.5857 14.2574 13.839 14.2178C14.0923 14.1781 14.3335 14.0859 14.5458 13.9474C15.1664 13.4856 15.6217 12.8497 15.8484 12.1281C16.0751 11.4065 16.062 10.635 15.8108 9.92093L15.8347 9.91322Z" fill="#3A3B7B"/>
<path d="M24.7055 10.8815C24.5031 10.9233 24.294 10.9258 24.0904 10.8888C23.887 10.8518 23.6932 10.7762 23.5207 10.6663C23.3697 10.5834 23.2397 10.4695 23.14 10.3326C23.0405 10.1957 22.9737 10.0394 22.9446 9.87472C22.9155 9.71014 22.9248 9.54141 22.9718 9.38066C23.0188 9.21991 23.1024 9.07115 23.2164 8.94507C23.4152 8.69171 23.6973 8.51033 24.0171 8.43025C24.8518 8.19772 25.7112 8.05595 26.579 8.00764C26.7697 7.98635 26.9629 8.00184 27.1472 8.05319C27.3316 8.10459 27.5033 8.19074 27.6525 8.30674C27.8016 8.42267 27.9252 8.56609 28.0158 8.72849C28.1064 8.89089 28.1623 9.06904 28.1802 9.25247C28.4304 10.1534 28.4578 11.0981 28.2603 12.0111C27.5398 14.9618 25.0578 15.9761 22.2717 15.0309C21.4896 14.7782 20.8039 14.3074 20.3022 13.6785C19.633 12.9212 19.1586 12.0237 18.9171 11.0582C18.7214 10.1985 18.7428 9.30632 18.9797 8.45615C19.2164 7.60599 19.6616 6.8225 20.2781 6.17112C20.8632 5.46314 21.6226 4.90597 22.4879 4.54976C23.0346 4.26052 23.6744 4.17828 24.2813 4.31924C24.4189 4.3558 24.5439 4.42705 24.6432 4.52559C24.7425 4.62414 24.8125 4.74638 24.846 4.87966C24.8795 5.01292 24.8752 5.15237 24.8336 5.28353C24.792 5.41468 24.7147 5.53277 24.6095 5.62554C24.4096 5.79925 24.1924 5.95367 23.961 6.08659C23.2492 6.52164 22.6298 7.08223 22.1356 7.73867C21.8116 8.16345 21.5885 8.65125 21.482 9.16764C21.3755 9.68404 21.3881 10.2166 21.5191 10.7278C21.7007 11.4249 22.1036 12.0506 22.672 12.5182C24.4333 14.0551 26.7231 12.572 26.3228 10.4742C25.7384 10.6126 25.226 10.7586 24.7055 10.8815Z" fill="#3A3B7B"/>
<path d="M35.466 15.2151C32.864 16.7519 29.9017 15.2151 29.2532 11.9878C28.7809 9.68254 29.6776 6.45518 32.816 5.22572C33.4838 4.96977 34.208 4.8799 34.9216 4.96446C35.779 5.11509 36.5655 5.52019 37.1702 6.12265C37.7748 6.7251 38.1674 7.49449 38.2922 8.32244C38.8206 11.0656 37.6197 13.9933 35.466 15.2151ZM36.3708 10.0437C36.37 9.40533 36.1347 8.78763 35.7062 8.29937C35.4772 7.99738 35.1461 7.781 34.7695 7.68708C34.3927 7.59322 33.9938 7.62763 33.6406 7.78456C32.2315 8.36851 31.2388 10.4893 31.5991 12.0493C31.6266 12.2941 31.7094 12.5301 31.8419 12.741C31.9744 12.9518 32.1532 13.1324 32.366 13.27C32.5787 13.4075 32.8202 13.4989 33.0736 13.5376C33.327 13.5762 33.5861 13.5613 33.8328 13.4939C34.5776 13.2441 35.2225 12.7774 35.6774 12.1589C36.1325 11.5403 36.3749 10.8008 36.3708 10.0437Z" fill="#3A3B7B"/>
<path d="M40.9235 15.8609C40.8843 16.1421 40.7302 16.3969 40.4952 16.5691C40.2602 16.7413 39.9636 16.8169 39.6706 16.7792C39.3776 16.7415 39.1122 16.5936 38.9328 16.368C38.7533 16.1425 38.6746 15.8578 38.7139 15.5766C38.7531 15.2953 38.9072 15.0406 39.1422 14.8684C39.3772 14.6962 39.6738 14.6206 39.9668 14.6583C40.2598 14.696 40.5252 14.8439 40.7047 15.0694C40.8841 15.295 40.9629 15.5797 40.9235 15.8609ZM40.227 5.49498C40.3793 5.27178 40.6027 5.1018 40.8638 5.01041C41.125 4.91901 41.4099 4.91109 41.6761 4.98783C41.9468 5.05282 42.1859 5.20508 42.3535 5.4191C42.5211 5.63313 42.607 5.89593 42.5969 6.1635C42.5616 6.59268 42.4947 7.01893 42.3967 7.43905C42.1325 8.86064 41.8763 10.2822 41.5961 11.6884C41.468 12.2494 41.2999 12.7872 41.1157 13.3558C41.0516 13.5336 40.9446 13.6942 40.8035 13.8246C40.7157 13.9227 40.6037 13.9979 40.4776 14.0433C40.3515 14.0888 40.2155 14.1029 40.0822 14.0845C39.949 14.0661 39.8226 14.0158 39.715 13.9381C39.6073 13.8604 39.5219 13.758 39.4665 13.6402C39.3713 13.4289 39.3196 13.2018 39.3143 12.9717C39.3143 12.0188 39.3143 11.0583 39.3784 10.0978C39.4872 8.72698 39.7013 7.36575 40.0189 6.02518C40.0563 5.84558 40.1267 5.67383 40.227 5.51803V5.49498Z" fill="#3A3B7B"/>
<path fill-rule="evenodd" clip-rule="evenodd" d="M4.31263 22.0356C4.2181 22.2382 4.19218 22.464 4.23837 22.6813C4.2691 22.9677 4.3366 23.2495 4.43933 23.5201C4.56759 23.8515 4.71111 24.1792 4.88807 24.5831C4.92876 24.676 4.97129 24.773 5.01579 24.8751C5.25443 25.4223 5.55386 26.1216 5.95326 27.1336C6.06631 27.4211 6.1667 27.711 6.26779 28.0028C6.30862 28.1207 6.34961 28.2391 6.39156 28.3576C6.54193 28.7792 6.80067 29.1579 7.14364 29.458C7.28927 29.623 7.48244 29.7432 7.69904 29.8033C7.91988 29.8646 8.15474 29.8607 8.37323 29.7922C8.59171 29.7236 8.7836 29.5935 8.924 29.4188C9.06164 29.2475 9.14349 29.041 9.1594 28.8254C9.2487 28.4053 9.21822 27.9697 9.07104 27.5647C8.83745 26.8922 8.57136 26.2187 8.26452 25.56L8.26311 25.5571C7.75833 24.5266 7.24523 23.5032 6.70784 22.4793L6.70382 22.4721C6.5465 22.2054 6.34206 21.9669 6.09967 21.7675C5.94232 21.5895 5.72526 21.4694 5.48556 21.428C5.24076 21.3858 4.98827 21.4283 4.77319 21.5482C4.56972 21.6597 4.40843 21.8304 4.31263 22.0356Z" fill="#3A3B7B"/>
<path fill-rule="evenodd" clip-rule="evenodd" d="M12.0224 19.498C11.2309 19.3013 10.4043 19.2726 9.60018 19.414C8.97737 19.4729 8.36482 19.6108 7.93947 19.8839C7.72314 20.0229 7.54823 20.2014 7.45094 20.4282C7.35311 20.6564 7.34063 20.9172 7.42079 21.2079C7.56717 21.7403 7.75725 22.2579 7.94666 22.7739L7.97734 22.8575L7.97808 22.8594C8.54839 24.3584 9.12414 25.8524 9.70513 27.3412C9.77288 27.5758 9.86869 27.8022 9.99062 28.0156L9.9929 28.0196C10.154 28.2848 10.3606 28.522 10.604 28.7213C10.7257 28.8308 10.8762 28.9066 11.0395 28.9405C11.2043 28.9746 11.3757 28.9647 11.535 28.9117C11.6944 28.8588 11.8356 28.7649 11.9431 28.6402C12.049 28.5175 12.1182 28.3698 12.1437 28.2125C12.2487 27.7853 12.2151 27.3374 12.0472 26.9291C11.9948 26.7916 11.9537 26.6512 11.9104 26.5033C11.896 26.454 11.8814 26.4039 11.8659 26.3528C13.1958 25.8539 14.6109 25.183 15.1085 23.6223C15.3033 23.0829 15.3195 22.4989 15.1549 21.9503C14.9901 21.4011 14.6521 20.9143 14.1873 20.5569C13.5548 20.0566 12.8159 19.6952 12.0224 19.498ZM9.82847 21.4123C9.85466 21.4051 9.88104 21.3984 9.9075 21.3921C10.7733 21.2615 11.6591 21.4355 12.4019 21.8821C12.7292 22.1006 12.8633 22.3434 12.8863 22.5769C12.9101 22.8174 12.8189 23.0781 12.6359 23.3286C12.2901 23.8018 11.6589 24.1806 11.0888 24.2512C10.6732 23.3325 10.2511 22.3767 9.82847 21.4123Z" fill="#3A3B7B"/>
<path d="M17.2991 17.8163C18.2417 17.3985 19.4092 17.3263 20.3228 17.6201C20.5529 17.6844 20.7525 17.8236 20.8876 18.0137C21.0217 18.2027 21.0836 18.4304 21.0629 18.658C21.0616 18.8058 21.0238 18.9512 20.9527 19.0824C20.8803 19.2159 20.7755 19.3307 20.6471 19.4172C20.5187 19.5036 20.3706 19.5591 20.2151 19.579C20.0596 19.5989 19.9015 19.5825 19.754 19.5313L19.7428 19.5274L19.7322 19.5221C19.6568 19.4842 19.5766 19.4557 19.4937 19.4371L19.4884 19.436C18.8457 19.2721 18.2395 19.5436 18.0181 19.8772C17.9125 20.0362 17.8994 20.1967 17.9873 20.3428C18.0815 20.4992 18.3126 20.6747 18.7801 20.7998C18.9087 20.8337 19.0405 20.8664 19.1741 20.8996C19.5438 20.9915 19.928 21.0869 20.2995 21.2192L20.3009 21.2197C22.0148 21.8456 22.653 23.1418 22.4345 24.361C22.2184 25.5667 21.1693 26.6639 19.5916 26.9228C19.0176 27.0449 18.4201 27.0211 17.8585 26.8538C17.2954 26.6859 16.7879 26.3796 16.3863 25.9652L16.3758 25.9544C16.2491 25.7982 16.1638 25.6148 16.126 25.4202C16.0912 25.2445 16.1095 25.063 16.1787 24.897C16.2474 24.7319 16.3637 24.5891 16.5138 24.4851C16.6723 24.3671 16.8634 24.2963 17.0634 24.2815C17.2628 24.2668 17.4623 24.3084 17.6373 24.4011C17.8121 24.4822 17.9748 24.5856 18.1207 24.7086L18.1235 24.7108C18.3817 24.9375 18.6941 24.9965 18.9937 24.9418C19.2977 24.8863 19.5835 24.7137 19.7673 24.4847C19.95 24.2571 20.0233 23.9867 19.9363 23.7243C19.8487 23.4599 19.5854 23.1637 19.007 22.9161C18.8558 22.8545 18.699 22.8048 18.5359 22.7564C18.492 22.7433 18.4472 22.7304 18.402 22.7172C18.2814 22.682 18.1573 22.6459 18.0357 22.606C17.9519 22.5786 17.8687 22.5526 17.7864 22.5268C17.5614 22.4565 17.3421 22.388 17.131 22.296C16.6715 22.1459 16.2746 21.8576 15.9992 21.4738C15.7227 21.0885 15.5836 20.6277 15.6025 20.1603C15.604 19.0212 16.3515 18.2364 17.2991 17.8163Z" fill="#3A3B7B"/>
<path d="M29.2488 17.695C29.066 17.6094 28.8639 17.5687 28.6607 17.5767C28.4575 17.5847 28.2595 17.6411 28.0848 17.741C27.9111 17.8401 27.7656 17.9789 27.6614 18.1451C27.5659 18.285 27.4998 18.4415 27.4668 18.6058C27.4338 18.7699 27.4346 18.9387 27.4691 19.1025C27.5031 19.313 27.5408 19.5177 27.5781 19.7196C27.6398 20.0537 27.6998 20.3802 27.7394 20.7132L27.7409 20.7217C27.8311 21.2438 27.8783 21.772 27.8825 22.3012L27.8829 22.3087C27.9138 22.8803 27.7108 23.4407 27.3177 23.8711L27.3115 23.8788C27.1836 24.0361 27.0126 24.1562 26.8175 24.2256C26.6225 24.295 26.4113 24.3109 26.2074 24.2716C26.0035 24.2324 25.815 24.1394 25.663 24.0032C25.511 23.867 25.4013 23.6923 25.3466 23.4998C25.2298 23.094 25.1622 22.6766 25.145 22.2559L25.3445 19.2068C25.3475 19.167 25.3508 19.1261 25.3543 19.0849C25.3619 18.9923 25.3696 18.8979 25.3729 18.81C25.3776 18.6805 25.3735 18.5474 25.3421 18.4214C25.31 18.2926 25.2488 18.17 25.1403 18.0657C25.0329 17.9624 24.8878 17.8862 24.7053 17.8344C24.3753 17.7427 24.0963 17.7456 23.8638 17.8403C23.6311 17.935 23.4717 18.1109 23.3589 18.314C23.247 18.5154 23.1751 18.7539 23.1207 18.9927C23.0803 19.17 23.0479 19.356 23.0171 19.5331C23.0064 19.5941 22.996 19.6541 22.9855 19.7123L22.9852 19.714C22.8203 20.6852 22.7712 21.6713 22.8389 22.6532C22.8515 23.1839 22.9668 23.7077 23.179 24.1978C23.4183 24.8303 23.8519 25.3783 24.4224 25.7694C24.9941 26.1614 25.6763 26.3774 26.3788 26.3888C27.0812 26.4002 27.7707 26.2065 28.356 25.8334C28.9402 25.4608 29.393 24.9268 29.6545 24.302C30.0202 23.5062 30.192 22.6407 30.1565 21.7715C30.135 21.1369 30.0991 20.4974 30.0633 19.8612C30.0457 19.5491 30.0281 19.2377 30.0124 18.9282C30.0045 18.6178 29.8979 18.3172 29.7068 18.0667C29.5886 17.9083 29.4312 17.7806 29.2488 17.695Z" fill="#3A3B7B"/>
<path d="M35.7174 22.4763C35.6988 22.4989 35.6793 22.5223 35.6589 22.5466C35.5102 21.7235 35.3725 20.9007 35.2345 20.0766C35.185 19.781 35.1352 19.4841 35.0852 19.188L35.0796 19.155L35.0613 19.1264C35.0269 19.0727 35.0234 19.0201 35.0234 18.9077V18.8948L35.0214 18.8819C34.984 18.65 34.8747 18.4341 34.7077 18.2626C34.5412 18.0916 34.325 17.9726 34.0871 17.9209C33.8496 17.8647 33.6 17.8771 33.3698 17.9565C33.1402 18.0358 32.94 18.1783 32.7943 18.3662C32.6732 18.5103 32.5739 18.6702 32.4995 18.841C32.3306 19.2091 32.1603 19.578 31.9895 19.948L31.9865 19.9544C31.5601 20.878 31.1308 21.8077 30.7139 22.7448L30.7127 22.7479C30.4568 23.3555 30.2456 23.9957 30.0351 24.634C29.993 24.7614 29.951 24.8887 29.9086 25.0157C29.8326 25.2172 29.7994 25.4311 29.8108 25.645C29.797 25.8364 29.8447 26.0274 29.9477 26.1921C30.0527 26.3602 30.21 26.4924 30.3974 26.5703C30.596 26.6538 30.8181 26.6716 31.0284 26.6207C31.2383 26.5699 31.4247 26.4536 31.5583 26.2902C31.7288 26.0888 31.8755 25.8692 31.9952 25.6365C32.3483 24.9433 32.6857 24.2416 33.0216 23.543C33.1516 23.2728 33.2779 23.0308 33.4216 22.7672C33.4315 22.7997 33.4416 22.8314 33.452 22.8631C33.6026 23.4995 33.8568 24.109 34.2052 24.6694C34.2711 24.7881 34.363 24.8918 34.4744 24.9735C34.5872 25.0561 34.7174 25.1141 34.8559 25.1436C34.9944 25.1731 35.138 25.1732 35.2766 25.144C35.415 25.1149 35.5455 25.0568 35.6584 24.9745L35.8818 24.8141L37.6156 23.4124L37.5131 24.0395C37.3724 24.9015 37.2327 25.7564 37.0843 26.6114C36.9872 26.9904 36.9874 27.3862 37.0847 27.7651C37.1269 27.9783 37.2343 28.1746 37.3933 28.3289C37.5537 28.4845 37.759 28.5902 37.9827 28.6324C38.2064 28.6745 38.4382 28.6512 38.6479 28.5653C38.8545 28.4808 39.0303 28.3393 39.1532 28.1591C39.4391 27.8187 39.617 27.4065 39.6659 26.9717C39.7395 26.3577 39.8226 25.7353 39.9058 25.1131C40.0016 24.396 40.0974 23.679 40.1783 22.9758L40.1786 22.9737C40.2565 22.2039 40.2942 21.431 40.2915 20.6576C40.3086 20.4132 40.2452 20.1698 40.1101 19.9617C39.9746 19.7529 39.7738 19.5906 39.5365 19.4977C39.2897 19.39 39.0134 19.3612 38.7483 19.4156C38.4849 19.4697 38.2464 19.603 38.0676 19.796C37.7478 20.0799 37.4478 20.3836 37.1695 20.7053L37.1676 20.7075C36.8638 21.0709 36.562 21.4414 36.2622 21.8095C36.0799 22.0332 35.8982 22.2565 35.7174 22.4763Z" fill="#3A3B7B"/>
</g>
<defs>
<clipPath id="clip0_42_5777">
<rect width="47" height="29" fill="white" transform="translate(0 0.84668)"/>
</clipPath>
</defs>
</svg>
