<svg width="40" height="29" viewBox="0 0 40 29" fill="none" xmlns="http://www.w3.org/2000/svg">
<path fill-rule="evenodd" clip-rule="evenodd" d="M9.98578 4.9613L0 14.8467C1.99734 16.824 4.27899 18.4904 6.76664 19.7941C7.45424 21.5997 8.53203 23.293 10 24.7462C15.5229 30.2135 24.4772 30.2135 30 24.7462C31.468 23.293 32.5458 21.5997 33.2334 19.794C35.721 18.4904 38.0027 16.824 40 14.8467L30.0223 4.96934C30.0149 4.96195 30.0075 4.95456 30 4.94718C24.4772 -0.520153 15.5229 -0.520153 10 4.94718C9.99527 4.95189 9.99052 4.95659 9.98578 4.9613ZM29.0445 21.5776C26.1345 22.5498 23.0797 23.0477 20 23.0477C16.9203 23.0477 13.8656 22.5498 10.9556 21.5776C11.2709 21.9917 11.619 22.3891 12 22.7663C16.4183 27.1402 23.5817 27.1402 28 22.7663C28.381 22.3891 28.7292 21.9917 29.0445 21.5776ZM12.2051 6.72908C12.9554 7.21979 13.7532 7.6397 14.588 7.98204C16.3038 8.6856 18.1428 9.04772 20 9.04772C21.8572 9.04772 23.6962 8.6856 25.412 7.98204C26.2468 7.6397 27.0446 7.21978 27.795 6.72906C23.4318 2.61921 16.5682 2.61922 12.2051 6.72908Z" fill="#3B4158"/>
</svg>
