<svg width="39" height="52" viewBox="0 0 39 52" fill="none" xmlns="http://www.w3.org/2000/svg">
<path d="M7.15895 11.7616V11.1219C7.15895 10.7299 6.78918 10.4431 6.40952 10.5408L5.33168 10.8179C5.06648 10.8861 4.8811 11.1252 4.8811 11.399V18.7239C4.8811 18.9375 4.9947 19.1351 5.17937 19.2425L11.7418 23.0606C11.9264 23.1681 12.04 23.3656 12.04 23.5792V48.6836C12.04 49.1722 11.4942 49.4511 11.1071 49.153C9.49269 47.9099 6.18833 45.215 4.49061 42.7586C2.59519 40.0161 1.16442 35.3454 0.656521 33.542C0.550479 33.1655 0.835515 32.8011 1.22668 32.8011H5.05557C5.33452 32.8011 5.57681 32.9932 5.64732 33.2631C5.76835 33.7265 5.97022 34.4421 6.18273 34.9488C6.41124 35.4937 7.15895 35.2931 7.15895 34.7022V26.4428C7.15895 26.2292 7.04535 26.0316 6.86068 25.9242L0.298264 22.1061C0.113602 21.9986 0 21.8011 0 21.5875V6.4283C0 6.16607 0.170289 5.93422 0.420506 5.85577L11.2606 2.45727C11.647 2.33611 12.04 2.62478 12.04 3.02979V13.9212C12.04 14.3849 11.5364 14.6734 11.1364 14.4387L7.45534 12.2791C7.27174 12.1714 7.15895 11.9745 7.15895 11.7616Z" fill="#00AFEF"/>
<path d="M17.1171 5.64736L15.1416 6.26927C14.7614 6.38897 14.3723 6.11145 14.3616 5.71295L14.2647 2.07752C14.2576 1.81064 14.4273 1.57129 14.6819 1.49084C15.2468 1.31227 16.254 0.99648 16.9861 0.780976C17.8859 0.516119 19.2105 0.155456 19.6426 0.0383844C19.7365 0.0129547 19.8332 0.0108863 19.928 0.0327761C20.3768 0.136473 21.7809 0.469 22.7133 0.780976C23.4442 1.02556 24.4361 1.44181 24.9593 1.66683C25.1773 1.76059 25.3165 1.97527 25.3165 2.21258V5.70307C25.3165 6.10459 24.9298 6.3928 24.545 6.27804L22.3784 5.63184C21.9936 5.51709 21.6069 5.8053 21.6069 6.20682V45.9153C21.6069 46.3192 21.9974 46.6067 22.3804 46.4787C22.7418 46.358 23.164 46.2107 23.4942 46.0776C23.7821 45.9615 24.1275 45.8049 24.4397 45.6579C24.8442 45.4675 25.3165 45.7596 25.3165 46.2067V49.7925C25.3165 50.0272 25.18 50.2402 24.9653 50.3351C24.4235 50.5746 23.3648 51.0295 22.5831 51.2841C21.6621 51.584 20.267 51.8854 19.8448 51.974C19.762 51.9914 19.6776 51.9906 19.5951 51.9715C19.193 51.8784 17.9045 51.5727 17.0512 51.2841C16.2905 51.0268 15.2606 50.5752 14.7303 50.3363C14.5176 50.2404 14.3828 50.0286 14.3828 49.7953V46.2451C14.3828 45.789 14.8729 45.4971 15.2804 45.7021C15.5468 45.8361 15.8322 45.9738 16.075 46.0776C16.3841 46.2097 16.7788 46.3531 17.1217 46.4716C17.5046 46.6038 17.8972 46.3164 17.8972 45.9113V6.21967C17.8972 5.81436 17.5037 5.52565 17.1171 5.64736Z" fill="#00AFEF"/>
<path d="M27.0088 48.1815V3.34669C27.0088 2.94427 27.3971 2.65593 27.7824 2.77234L38.4272 5.98918C38.6804 6.0657 38.8536 6.29901 38.8536 6.56353V24.3221C38.8536 24.5352 38.7405 24.7324 38.5565 24.84L36.2623 26.1819C35.8725 26.4099 35.8648 26.9705 36.2481 27.2091L38.5499 28.6423C38.737 28.7588 38.8451 28.9669 38.827 29.1866C38.6922 30.827 37.9907 37.7219 35.5344 40.8064C33.3412 43.5608 29.7314 47.0088 27.9981 48.6196C27.6177 48.973 27.0088 48.7007 27.0088 48.1815Z" fill="#00AFEF"/>
<path d="M32.1205 28.5266L32.6187 28.2336C32.8108 28.1206 33.0497 28.1234 33.2391 28.2409L33.8188 28.6004C33.9952 28.7098 34.1026 28.9027 34.1026 29.1103V35.2561C34.1026 35.4687 33.99 35.6654 33.8068 35.7732L33.2919 36.0761C33.1087 36.1839 32.8821 36.1867 32.6963 36.0834L32.1333 35.7707C31.9428 35.6649 31.8247 35.4641 31.8247 35.2462V29.0438C31.8247 28.8312 31.9372 28.6344 32.1205 28.5266Z" fill="white"/>
<path d="M31.8247 17.7673V11.2049C31.8247 10.8074 32.2043 10.5197 32.587 10.6273L33.6649 10.9301C33.9237 11.0029 34.1026 11.2389 34.1026 11.5078V24.3228C34.1026 24.5354 33.99 24.7321 33.8068 24.8399L33.2919 25.1428C33.1087 25.2506 32.8821 25.2534 32.6963 25.1501L32.1333 24.8374C31.9428 24.7316 31.8247 24.5308 31.8247 24.3129V17.7673Z" fill="white"/>
</svg>
