<svg width="26" height="20" viewBox="0 0 26 20" fill="none" xmlns="http://www.w3.org/2000/svg">
<path d="M24.375 3.875V16.125C24.375 16.8212 24.0984 17.4889 23.6062 17.9812C23.1139 18.4734 22.4462 18.75 21.75 18.75H4.25C3.55381 18.75 2.88613 18.4734 2.39384 17.9812C1.90156 17.4889 1.625 16.8212 1.625 16.125V3.875M24.375 3.875C24.375 3.17881 24.0984 2.51113 23.6062 2.01884C23.1139 1.52656 22.4462 1.25 21.75 1.25H4.25C3.55381 1.25 2.88613 1.52656 2.39384 2.01884C1.90156 2.51113 1.625 3.17881 1.625 3.875M24.375 3.875V4.1585C24.375 4.60667 24.2604 5.04739 24.0418 5.43868C23.8233 5.82997 23.5083 6.15879 23.1267 6.39383L14.3767 11.778C13.9627 12.033 13.4861 12.168 13 12.168C12.5139 12.168 12.0373 12.033 11.6233 11.778L2.87333 6.395C2.49174 6.15996 2.17668 5.83113 1.95816 5.43985C1.73965 5.04856 1.62495 4.60784 1.625 4.15967V3.875" stroke="#00AFEF" stroke-width="1.5" stroke-linecap="round" stroke-linejoin="round"/>
</svg>
