<svg width="26" height="26" viewBox="0 0 26 26" fill="none" xmlns="http://www.w3.org/2000/svg">
<path d="M1.625 6.875C1.625 16.5397 9.46033 24.375 19.125 24.375H21.75C22.4462 24.375 23.1139 24.0984 23.6062 23.6062C24.0984 23.1139 24.375 22.4462 24.375 21.75V20.1493C24.375 19.5473 23.9655 19.0223 23.381 18.8765L18.2208 17.5862C17.7075 17.4578 17.1685 17.6503 16.8523 18.0727L15.7207 19.5812C15.3917 20.0198 14.8235 20.2135 14.309 20.0245C12.399 19.3223 10.6645 18.2134 9.22558 16.7744C7.78665 15.3355 6.67769 13.601 5.9755 11.691C5.7865 11.1765 5.98017 10.6083 6.41883 10.2793L7.92733 9.14767C8.35083 8.8315 8.54217 8.29133 8.41383 7.77917L7.1235 2.619C7.05249 2.33514 6.88867 2.08315 6.65806 1.90306C6.42745 1.72297 6.14327 1.6251 5.85067 1.625H4.25C3.55381 1.625 2.88613 1.90156 2.39384 2.39384C1.90156 2.88613 1.625 3.55381 1.625 4.25V6.875Z" stroke="#00AFEF" stroke-width="1.5" stroke-linecap="round" stroke-linejoin="round"/>
</svg>
