<svg width="32" height="32" viewBox="0 0 32 32" fill="none" xmlns="http://www.w3.org/2000/svg">
<mask id="mask0_79_109" style="mask-type:luminance" maskUnits="userSpaceOnUse" x="1" y="4" width="30" height="27">
<path d="M13.3333 22.0002L17.3333 23.3335C17.3333 23.3335 27.3333 21.3335 28.6666 21.3335C30 21.3335 30 22.6668 28.6666 24.0002C27.3333 25.3335 22.6666 29.3335 18.6666 29.3335C14.6666 29.3335 12 27.3335 9.33329 27.3335H2.66663" stroke="white" stroke-width="2" stroke-linecap="round" stroke-linejoin="round"/>
<path d="M2.66663 19.3335C3.99996 18.0002 6.66663 16.0002 9.33329 16.0002C12 16.0002 18.3333 18.6668 19.3333 20.0002C20.3333 21.3335 17.3333 23.3335 17.3333 23.3335M10.6666 12.0002V6.66683C10.6666 6.31321 10.8071 5.97407 11.0572 5.72402C11.3072 5.47397 11.6463 5.3335 12 5.3335H28C28.3536 5.3335 28.6927 5.47397 28.9428 5.72402C29.1928 5.97407 29.3333 6.31321 29.3333 6.66683V17.3335" stroke="white" stroke-width="2" stroke-linecap="round" stroke-linejoin="round"/>
<path d="M16.6666 5.3335H23.3333V11.3335H16.6666V5.3335Z" fill="#555555" stroke="white" stroke-width="2" stroke-linecap="round" stroke-linejoin="round"/>
</mask>
<g mask="url(#mask0_79_109)">
<path d="M0 0H32V32H0V0Z" fill="#00AFEF"/>
</g>
</svg>
