<svg width="100" height="100" viewBox="0 0 100 100" fill="none" xmlns="http://www.w3.org/2000/svg">
<path d="M56.2812 9.375H46.6875C44.8043 9.37437 42.9561 9.88323 41.3386 10.8477C39.7212 11.8121 38.3948 13.1961 37.5 14.8531V47.2188H65.675V15.3188C64.831 13.5415 63.5006 12.0399 61.838 10.988C60.1754 9.93598 58.2487 9.37672 56.2812 9.375ZM58.375 37.0938H55.3437V40.125C55.3437 41.1444 54.9388 42.1221 54.2179 42.8429C53.4971 43.5638 52.5194 43.9688 51.5 43.9688C50.4806 43.9688 49.5029 43.5638 48.7821 42.8429C48.0612 42.1221 47.6562 41.1444 47.6562 40.125V37.0938H44.625C42.5625 37.0938 40.8813 35.475 40.7875 33.4344C40.8237 32.4377 41.2427 31.4933 41.9575 30.7977C42.6723 30.1022 43.6277 29.709 44.625 29.7H47.6562V26.6063C47.6562 24.4344 49.375 22.6812 51.5 22.6812C53.625 22.6812 55.3437 24.4344 55.3437 26.6063V29.7H58.375C60.4375 29.7 62.1188 31.3813 62.2156 33.4344C62.1682 34.421 61.7429 35.3515 61.0278 36.0328C60.3127 36.7142 59.3627 37.0941 58.375 37.0938ZM83.7188 47.2188H68.8V16.0344C77.375 18.425 83.6938 26.4406 83.7188 35.9469V47.2188ZM34.375 47.2188V15.9688C25.6625 18.275 19.25 26.3531 19.25 35.9469V47.2125L34.375 47.2188ZM19.0313 50.1875H83.875C87.5 50.1875 90.4062 53.0938 90.4062 56.7188C90.4062 60.3125 87.4688 63.25 83.875 63.25H77.6625V68.8438C77.6625 74.7438 75.7125 80.1875 72.4188 84.5687C72.8219 85.9656 72.475 87.5344 71.3781 88.6375C68.7736 91.2675 65.6729 93.3543 62.2559 94.7769C58.8388 96.1996 55.1733 96.9297 51.4719 96.925C47.7735 96.9235 44.1117 96.1917 40.6968 94.7717C37.2819 93.3516 34.1809 91.2713 31.5719 88.65C31.047 88.1263 30.6724 87.4713 30.4871 86.7534C30.3019 86.0355 30.3128 85.281 30.5187 84.5687C27.1071 80.0369 25.2662 74.5162 25.275 68.8438V63.25H19.0313C15.4375 63.25 12.5 60.3125 12.5 56.7188C12.5 53.125 15.4375 50.1875 19.0313 50.1875ZM73.15 68.8438V63.25H29.7875V68.8438C29.7875 73.6188 31.3312 78.0312 33.9469 81.6125C35.1844 81.4469 36.4781 81.8406 37.4281 82.7906C39.268 84.642 41.4555 86.1116 43.865 87.115C46.2746 88.1184 48.8586 88.6358 51.4687 88.6375C56.95 88.6375 61.9031 86.4188 65.5 82.8C66.4469 81.8438 67.75 81.4469 68.9906 81.6125C71.6986 77.9065 73.1545 73.4337 73.1469 68.8438" fill="#F3F3F3"/>
</svg>
