<svg width="24" height="24" viewBox="0 0 24 24" fill="none" xmlns="http://www.w3.org/2000/svg">
<path d="M11.9999 0C18.6275 0 23.9999 5.3724 23.9999 12C23.9999 18.6276 18.6275 24 11.9999 24C9.95749 24.003 7.94836 23.4824 6.16435 22.488L5.79835 22.2744L2.15995 23.3448C1.96195 23.4031 1.75233 23.4099 1.55097 23.3646C1.3496 23.3192 1.16316 23.2232 1.00931 23.0855C0.855469 22.9479 0.739321 22.7733 0.671881 22.5782C0.60444 22.3831 0.587942 22.174 0.623949 21.9708L0.655149 21.84L1.72555 18.2016C0.5939 16.3312 -0.00295789 14.1861 -5.04637e-05 12C-5.04637e-05 5.3724 5.37235 0 11.9999 0ZM11.9999 2.4C10.2811 2.39969 8.59369 2.86087 7.11394 3.73538C5.63419 4.60989 4.41637 5.86565 3.58766 7.37153C2.75895 8.8774 2.34975 10.5782 2.40278 12.2962C2.45581 14.0142 2.96914 15.6865 3.88915 17.1384C4.12675 17.5128 4.22875 17.9736 4.14835 18.4308L4.10155 18.6264L3.57235 20.4276L5.37355 19.8984C5.89315 19.7448 6.43315 19.8384 6.86155 20.1108C8.11954 20.9073 9.54557 21.4003 11.0269 21.5508C12.5083 21.7013 14.0043 21.5052 15.3968 20.9779C16.7893 20.4506 18.04 19.6067 19.0501 18.5127C20.0603 17.4188 20.8021 16.1049 21.217 14.6749C21.6319 13.2449 21.7084 11.738 21.4406 10.2733C21.1728 8.80863 20.568 7.42632 19.6739 6.23565C18.7799 5.04498 17.6211 4.0786 16.2892 3.4129C14.9574 2.74719 13.4889 2.40042 11.9999 2.4ZM8.52235 6.2208C8.6552 6.16326 8.80075 6.14131 8.94466 6.15709C9.08858 6.17287 9.22591 6.22584 9.34315 6.3108C9.94794 6.7524 10.4279 7.3452 10.8407 7.9236L11.2331 8.49239L11.4167 8.76239C11.5227 8.91729 11.5747 9.10275 11.5647 9.29014C11.5547 9.47753 11.4833 9.65642 11.3615 9.7992L11.2715 9.89039L10.1627 10.7136C10.1094 10.7522 10.0718 10.8089 10.057 10.8731C10.0423 10.9373 10.0512 11.0047 10.0823 11.0628C10.3343 11.5188 10.7795 12.1992 11.2907 12.7104C11.8031 13.2216 12.5147 13.6968 13.0019 13.9764C13.1075 14.0364 13.2347 14.0172 13.3211 13.9392L13.3667 13.8852L14.0879 12.7872C14.2203 12.6108 14.4159 12.4926 14.6336 12.4572C14.8512 12.4219 15.0741 12.4722 15.2555 12.5976L15.9071 13.0524C16.5551 13.5144 17.1779 14.0112 17.6711 14.6412C17.7629 14.7594 17.8211 14.9 17.8399 15.0484C17.8587 15.1968 17.8373 15.3475 17.7779 15.4848C17.3027 16.5936 16.0991 17.538 14.8487 17.4924L14.6579 17.4804L14.4287 17.4588C14.3855 17.4537 14.3423 17.4481 14.2991 17.442L14.0135 17.394C12.9047 17.1852 11.1275 16.5564 9.28555 14.7156C7.44475 12.8736 6.81595 11.0964 6.60715 9.98759L6.55915 9.70199L6.52915 9.45239L6.51355 9.24239C6.51165 9.21241 6.51005 9.18241 6.50875 9.15239C6.46315 7.8996 7.41235 6.696 8.52235 6.2208Z" fill="#0DB760"/>
</svg>
